{
    "asset" : {
        "generator" : "Khronos glTF Blender I/O v1.1.45",
        "version" : "2.0"
    },
    "scene" : 0,
    "scenes" : [
        {
            "name" : "Scene",
            "nodes" : [
                0
            ]
        }
    ],
    "nodes" : [
        {
            "mesh" : 0,
            "name" : "Plane.001",
            "rotation" : [
                0.5,
                -0.5,
                -0.4999999701976776,
                0.5
            ],
            "scale" : [
                0.44999998807907104,
                1,
                0.019999999552965164
            ],
            "translation" : [
                -1.1257023811340332,
                0.8999999761581421,
                -2.2748653888702393
            ]
        }
    ],
    "materials" : [
        {
            "doubleSided" : true,
            "emissiveFactor" : [
                0,
                0,
                0
            ],
            "name" : "Bianco",
            "pbrMetallicRoughness" : {
                "baseColorFactor" : [
                    1,
                    1,
                    1,
                    1
                ],
                "metallicFactor" : 0,
                "roughnessFactor" : 0.5
            }
        },
        {
            "doubleSided" : true,
            "emissiveFactor" : [
                0,
                0,
                0
            ],
            "name" : "P3_Back",
            "pbrMetallicRoughness" : {
                "baseColorTexture" : {
                    "index" : 0,
                    "texCoord" : 0
                },
                "metallicFactor" : 0,
                "roughnessFactor" : 0.5
            }
        },
        {
            "doubleSided" : true,
            "emissiveFactor" : [
                0,
                0,
                0
            ],
            "name" : "P1_Blu",
            "pbrMetallicRoughness" : {
                "baseColorTexture" : {
                    "index" : 1,
                    "texCoord" : 0
                },
                "metallicFactor" : 0,
                "roughnessFactor" : 0.5
            }
        },
        {
            "doubleSided" : true,
            "emissiveFactor" : [
                0,
                0,
                0
            ],
            "name" : "testo grande",
            "pbrMetallicRoughness" : {
                "baseColorTexture" : {
                    "index" : 2,
                    "texCoord" : 0
                },
                "metallicFactor" : 0,
                "roughnessFactor" : 0.5
            }
        },
        {
            "doubleSided" : true,
            "emissiveFactor" : [
                0,
                0,
                0
            ],
            "name" : "P1_Giallo",
            "pbrMetallicRoughness" : {
                "baseColorTexture" : {
                    "index" : 3,
                    "texCoord" : 0
                },
                "metallicFactor" : 0,
                "roughnessFactor" : 0.5
            }
        },
        {
            "doubleSided" : true,
            "emissiveFactor" : [
                0,
                0,
                0
            ],
            "name" : "P3",
            "pbrMetallicRoughness" : {
                "baseColorTexture" : {
                    "index" : 4,
                    "texCoord" : 0
                },
                "metallicFactor" : 0,
                "roughnessFactor" : 0.5
            }
        },
        {
            "doubleSided" : true,
            "emissiveFactor" : [
                0,
                0,
                0
            ],
            "name" : "P1_02_Back",
            "pbrMetallicRoughness" : {
                "baseColorTexture" : {
                    "index" : 5,
                    "texCoord" : 0
                },
                "metallicFactor" : 0,
                "roughnessFactor" : 0.5
            }
        },
        {
            "doubleSided" : true,
            "emissiveFactor" : [
                0,
                0,
                0
            ],
            "name" : "P1_01_Back",
            "pbrMetallicRoughness" : {
                "baseColorTexture" : {
                    "index" : 6,
                    "texCoord" : 0
                },
                "metallicFactor" : 0,
                "roughnessFactor" : 0.5
            }
        },
        {
            "doubleSided" : true,
            "emissiveFactor" : [
                0,
                0,
                0
            ],
            "name" : "P2_Back",
            "pbrMetallicRoughness" : {
                "baseColorTexture" : {
                    "index" : 7,
                    "texCoord" : 0
                },
                "metallicFactor" : 0,
                "roughnessFactor" : 0.5
            }
        }
    ],
    "meshes" : [
        {
            "name" : "Plane.001",
            "primitives" : [
                {
                    "attributes" : {
                        "POSITION" : 0,
                        "NORMAL" : 1,
                        "TEXCOORD_0" : 2
                    },
                    "indices" : 3,
                    "material" : 0
                },
                {
                    "attributes" : {
                        "POSITION" : 4,
                        "NORMAL" : 5,
                        "TEXCOORD_0" : 6
                    },
                    "indices" : 7,
                    "material" : 1
                },
                {
                    "attributes" : {
                        "POSITION" : 8,
                        "NORMAL" : 9,
                        "TEXCOORD_0" : 10
                    },
                    "indices" : 7,
                    "material" : 2
                },
                {
                    "attributes" : {
                        "POSITION" : 11,
                        "NORMAL" : 12,
                        "TEXCOORD_0" : 13
                    },
                    "indices" : 14,
                    "material" : 3
                },
                {
                    "attributes" : {
                        "POSITION" : 15,
                        "NORMAL" : 16,
                        "TEXCOORD_0" : 17
                    },
                    "indices" : 7,
                    "material" : 4
                },
                {
                    "attributes" : {
                        "POSITION" : 18,
                        "NORMAL" : 19,
                        "TEXCOORD_0" : 20
                    },
                    "indices" : 14,
                    "material" : 5
                },
                {
                    "attributes" : {
                        "POSITION" : 21,
                        "NORMAL" : 22,
                        "TEXCOORD_0" : 23
                    },
                    "indices" : 7,
                    "material" : 6
                },
                {
                    "attributes" : {
                        "POSITION" : 24,
                        "NORMAL" : 25,
                        "TEXCOORD_0" : 26
                    },
                    "indices" : 7,
                    "material" : 7
                },
                {
                    "attributes" : {
                        "POSITION" : 27,
                        "NORMAL" : 28,
                        "TEXCOORD_0" : 29
                    },
                    "indices" : 14,
                    "material" : 8
                }
            ]
        }
    ],
    "textures" : [
        {
            "source" : 0
        },
        {
            "source" : 1
        },
        {
            "sampler" : 0,
            "source" : 2
        },
        {
            "source" : 3
        },
        {
            "source" : 4
        },
        {
            "source" : 5
        },
        {
            "source" : 6
        },
        {
            "sampler" : 1,
            "source" : 7
        }
    ],
    "images" : [
        {
            "bufferView" : 8,
            "mimeType" : "image/png",
            "name" : "B_P3_Colori"
        },
        {
            "bufferView" : 12,
            "mimeType" : "image/png",
            "name" : "P1_01"
        },
        {
            "bufferView" : 17,
            "mimeType" : "image/png",
            "name" : "P2"
        },
        {
            "bufferView" : 21,
            "mimeType" : "image/png",
            "name" : "P1_02"
        },
        {
            "bufferView" : 25,
            "mimeType" : "image/png",
            "name" : "P3"
        },
        {
            "bufferView" : 29,
            "mimeType" : "image/png",
            "name" : "B_P1_02_Colori"
        },
        {
            "bufferView" : 33,
            "mimeType" : "image/png",
            "name" : "B_P1_01_Colori"
        },
        {
            "bufferView" : 37,
            "mimeType" : "image/png",
            "name" : "B_P2_Colori"
        }
    ],
    "accessors" : [
        {
            "bufferView" : 0,
            "componentType" : 5126,
            "count" : 160,
            "max" : [
                1,
                3.588913917541504,
                1
            ],
            "min" : [
                -1.0000017881393433,
                0,
                -85.17079162597656
            ],
            "type" : "VEC3"
        },
        {
            "bufferView" : 1,
            "componentType" : 5126,
            "count" : 160,
            "type" : "VEC3"
        },
        {
            "bufferView" : 2,
            "componentType" : 5126,
            "count" : 160,
            "type" : "VEC2"
        },
        {
            "bufferView" : 3,
            "componentType" : 5123,
            "count" : 312,
            "type" : "SCALAR"
        },
        {
            "bufferView" : 4,
            "componentType" : 5126,
            "count" : 4,
            "max" : [
                0.999998927116394,
                3.234405994415283,
                -55.43293762207031
            ],
            "min" : [
                -1.000001311302185,
                1.314405918121338,
                -55.454254150390625
            ],
            "type" : "VEC3"
        },
        {
            "bufferView" : 5,
            "componentType" : 5126,
            "count" : 4,
            "type" : "VEC3"
        },
        {
            "bufferView" : 6,
            "componentType" : 5126,
            "count" : 4,
            "type" : "VEC2"
        },
        {
            "bufferView" : 7,
            "componentType" : 5123,
            "count" : 6,
            "type" : "SCALAR"
        },
        {
            "bufferView" : 9,
            "componentType" : 5126,
            "count" : 4,
            "max" : [
                0.999998152256012,
                3.5542681217193604,
                -57.45427322387695
            ],
            "min" : [
                -1.0000017881393433,
                3.234396457672119,
                -85.17079162597656
            ],
            "type" : "VEC3"
        },
        {
            "bufferView" : 10,
            "componentType" : 5126,
            "count" : 4,
            "type" : "VEC3"
        },
        {
            "bufferView" : 11,
            "componentType" : 5126,
            "count" : 4,
            "type" : "VEC2"
        },
        {
            "bufferView" : 13,
            "componentType" : 5126,
            "count" : 4,
            "max" : [
                0.9999992847442627,
                1.2797601222991943,
                -1.0000057220458984
            ],
            "min" : [
                -1.0000005960464478,
                0.6400004625320435,
                -56.43256378173828
            ],
            "type" : "VEC3"
        },
        {
            "bufferView" : 14,
            "componentType" : 5126,
            "count" : 4,
            "type" : "VEC3"
        },
        {
            "bufferView" : 15,
            "componentType" : 5126,
            "count" : 4,
            "type" : "VEC2"
        },
        {
            "bufferView" : 16,
            "componentType" : 5123,
            "count" : 6,
            "type" : "SCALAR"
        },
        {
            "bufferView" : 18,
            "componentType" : 5126,
            "count" : 4,
            "max" : [
                1,
                0.6399999856948853,
                -1
            ],
            "min" : [
                -1,
                0,
                -1
            ],
            "type" : "VEC3"
        },
        {
            "bufferView" : 19,
            "componentType" : 5126,
            "count" : 4,
            "type" : "VEC3"
        },
        {
            "bufferView" : 20,
            "componentType" : 5126,
            "count" : 4,
            "type" : "VEC2"
        },
        {
            "bufferView" : 22,
            "componentType" : 5126,
            "count" : 4,
            "max" : [
                0.999998927116394,
                3.2343969345092773,
                -57.43292999267578
            ],
            "min" : [
                -1.000001311302185,
                1.3143969774246216,
                -57.454254150390625
            ],
            "type" : "VEC3"
        },
        {
            "bufferView" : 23,
            "componentType" : 5126,
            "count" : 4,
            "type" : "VEC3"
        },
        {
            "bufferView" : 24,
            "componentType" : 5126,
            "count" : 4,
            "type" : "VEC2"
        },
        {
            "bufferView" : 26,
            "componentType" : 5126,
            "count" : 4,
            "max" : [
                0.999998152256012,
                3.588913917541504,
                -56.45466995239258
            ],
            "min" : [
                -1.0000017881393433,
                3.2690422534942627,
                -84.17118835449219
            ],
            "type" : "VEC3"
        },
        {
            "bufferView" : 27,
            "componentType" : 5126,
            "count" : 4,
            "type" : "VEC3"
        },
        {
            "bufferView" : 28,
            "componentType" : 5126,
            "count" : 4,
            "type" : "VEC2"
        },
        {
            "bufferView" : 30,
            "componentType" : 5126,
            "count" : 4,
            "max" : [
                1,
                0.6399999856948853,
                1
            ],
            "min" : [
                -1,
                0,
                1
            ],
            "type" : "VEC3"
        },
        {
            "bufferView" : 31,
            "componentType" : 5126,
            "count" : 4,
            "type" : "VEC3"
        },
        {
            "bufferView" : 32,
            "componentType" : 5126,
            "count" : 4,
            "type" : "VEC2"
        },
        {
            "bufferView" : 34,
            "componentType" : 5126,
            "count" : 4,
            "max" : [
                0.9999992847442627,
                1.3144054412841797,
                -0.0003833770751953125
            ],
            "min" : [
                -1.0000005960464478,
                0.674645721912384,
                -55.43293762207031
            ],
            "type" : "VEC3"
        },
        {
            "bufferView" : 35,
            "componentType" : 5126,
            "count" : 4,
            "type" : "VEC3"
        },
        {
            "bufferView" : 36,
            "componentType" : 5126,
            "count" : 4,
            "type" : "VEC2"
        }
    ],
    "bufferViews" : [
        {
            "buffer" : 0,
            "byteLength" : 1920,
            "byteOffset" : 0
        },
        {
            "buffer" : 0,
            "byteLength" : 1920,
            "byteOffset" : 1920
        },
        {
            "buffer" : 0,
            "byteLength" : 1280,
            "byteOffset" : 3840
        },
        {
            "buffer" : 0,
            "byteLength" : 624,
            "byteOffset" : 5120
        },
        {
            "buffer" : 0,
            "byteLength" : 48,
            "byteOffset" : 5744
        },
        {
            "buffer" : 0,
            "byteLength" : 48,
            "byteOffset" : 5792
        },
        {
            "buffer" : 0,
            "byteLength" : 32,
            "byteOffset" : 5840
        },
        {
            "buffer" : 0,
            "byteLength" : 12,
            "byteOffset" : 5872
        },
        {
            "buffer" : 0,
            "byteLength" : 33846,
            "byteOffset" : 5884
        },
        {
            "buffer" : 0,
            "byteLength" : 48,
            "byteOffset" : 39732
        },
        {
            "buffer" : 0,
            "byteLength" : 48,
            "byteOffset" : 39780
        },
        {
            "buffer" : 0,
            "byteLength" : 32,
            "byteOffset" : 39828
        },
        {
            "buffer" : 0,
            "byteLength" : 63415,
            "byteOffset" : 39860
        },
        {
            "buffer" : 0,
            "byteLength" : 48,
            "byteOffset" : 103276
        },
        {
            "buffer" : 0,
            "byteLength" : 48,
            "byteOffset" : 103324
        },
        {
            "buffer" : 0,
            "byteLength" : 32,
            "byteOffset" : 103372
        },
        {
            "buffer" : 0,
            "byteLength" : 12,
            "byteOffset" : 103404
        },
        {
            "buffer" : 0,
            "byteLength" : 34207,
            "byteOffset" : 103416
        },
        {
            "buffer" : 0,
            "byteLength" : 48,
            "byteOffset" : 137624
        },
        {
            "buffer" : 0,
            "byteLength" : 48,
            "byteOffset" : 137672
        },
        {
            "buffer" : 0,
            "byteLength" : 32,
            "byteOffset" : 137720
        },
        {
            "buffer" : 0,
            "byteLength" : 12799,
            "byteOffset" : 137752
        },
        {
            "buffer" : 0,
            "byteLength" : 48,
            "byteOffset" : 150552
        },
        {
            "buffer" : 0,
            "byteLength" : 48,
            "byteOffset" : 150600
        },
        {
            "buffer" : 0,
            "byteLength" : 32,
            "byteOffset" : 150648
        },
        {
            "buffer" : 0,
            "byteLength" : 8996,
            "byteOffset" : 150680
        },
        {
            "buffer" : 0,
            "byteLength" : 48,
            "byteOffset" : 159676
        },
        {
            "buffer" : 0,
            "byteLength" : 48,
            "byteOffset" : 159724
        },
        {
            "buffer" : 0,
            "byteLength" : 32,
            "byteOffset" : 159772
        },
        {
            "buffer" : 0,
            "byteLength" : 11660,
            "byteOffset" : 159804
        },
        {
            "buffer" : 0,
            "byteLength" : 48,
            "byteOffset" : 171464
        },
        {
            "buffer" : 0,
            "byteLength" : 48,
            "byteOffset" : 171512
        },
        {
            "buffer" : 0,
            "byteLength" : 32,
            "byteOffset" : 171560
        },
        {
            "buffer" : 0,
            "byteLength" : 12756,
            "byteOffset" : 171592
        },
        {
            "buffer" : 0,
            "byteLength" : 48,
            "byteOffset" : 184348
        },
        {
            "buffer" : 0,
            "byteLength" : 48,
            "byteOffset" : 184396
        },
        {
            "buffer" : 0,
            "byteLength" : 32,
            "byteOffset" : 184444
        },
        {
            "buffer" : 0,
            "byteLength" : 8691,
            "byteOffset" : 184476
        }
    ],
    "samplers" : [
        {
            "magFilter" : 9729,
            "minFilter" : 9986
        },
        {
            "magFilter" : 9729,
            "minFilter" : 9986
        }
    ],
    "buffers" : [
        {
            "byteLength" : 193168,
            "uri" : "data:application/octet-stream;base64,"
        }
    ]
}
